<svg width="24" height="32" viewBox="0 0 24 32" fill="none" xmlns="http://www.w3.org/2000/svg">
<path d="M12 31.8332C11.6305 31.8332 11.3138 31.7276 11.05 31.5165C10.7861 31.3054 10.5882 31.0283 10.4562 30.6853C9.95482 29.2075 9.32149 27.8221 8.55621 26.529C7.81732 25.2359 6.77496 23.7186 5.42913 21.9769C4.08329 20.2353 2.98815 18.5728 2.14371 16.9894C1.32565 15.4061 0.916626 13.4929 0.916626 11.2498C0.916626 8.16233 1.98538 5.54984 4.12288 3.41234C6.28677 1.24845 8.91246 0.166504 12 0.166504C15.0875 0.166504 17.7 1.24845 19.8375 3.41234C22.0014 5.54984 23.0833 8.16233 23.0833 11.2498C23.0833 13.6512 22.6215 15.6568 21.6979 17.2665C20.8007 18.8498 19.7583 20.42 18.5708 21.9769C17.1458 23.8769 16.0638 25.4603 15.325 26.7269C14.6125 27.9672 14.0187 29.2866 13.5437 30.6853C13.4118 31.0547 13.2007 31.345 12.9104 31.5561C12.6465 31.7408 12.343 31.8332 12 31.8332ZM12 26.1728C12.4486 25.2755 12.95 24.3915 13.5041 23.5207C14.0847 22.6498 14.9291 21.4887 16.0375 20.0373C17.1722 18.5596 18.0958 17.2005 18.8083 15.9603C19.5472 14.6936 19.9166 13.1234 19.9166 11.2498C19.9166 9.05956 19.1382 7.19914 17.5812 5.66859C16.0507 4.11164 14.1902 3.33317 12 3.33317C9.80968 3.33317 7.93607 4.11164 6.37913 5.66859C4.84857 7.19914 4.08329 9.05956 4.08329 11.2498C4.08329 13.1234 4.43954 14.6936 5.15204 15.9603C5.89093 17.2005 6.82774 18.5596 7.96246 20.0373C9.07079 21.4887 9.90204 22.6498 10.4562 23.5207C11.0368 24.3915 11.5513 25.2755 12 26.1728ZM12 15.2082C13.1083 15.2082 14.0451 14.8255 14.8104 14.0603C15.5757 13.295 15.9583 12.3582 15.9583 11.2498C15.9583 10.1415 15.5757 9.2047 14.8104 8.43942C14.0451 7.67414 13.1083 7.2915 12 7.2915C10.8916 7.2915 9.95482 7.67414 9.18954 8.43942C8.42427 9.2047 8.04163 10.1415 8.04163 11.2498C8.04163 12.3582 8.42427 13.295 9.18954 14.0603C9.95482 14.8255 10.8916 15.2082 12 15.2082Z" fill="#C74B31"/>
</svg>
