<svg width="32" height="32" viewBox="0 0 32 32" fill="none" xmlns="http://www.w3.org/2000/svg">
<path d="M6.26246 24.0748C7.60829 23.0457 9.11246 22.2342 10.775 21.6405C12.4375 21.0467 14.1791 20.7498 16 20.7498C17.8208 20.7498 19.5625 21.0467 21.225 21.6405C22.8875 22.2342 24.3916 23.0457 25.7375 24.0748C26.6611 22.9929 27.3802 21.7658 27.8948 20.3936C28.4093 19.0214 28.6666 17.5568 28.6666 15.9998C28.6666 12.4901 27.4329 9.50157 24.9656 7.03421C22.4982 4.56685 19.5097 3.33317 16 3.33317C12.4902 3.33317 9.5017 4.56685 7.03434 7.03421C4.56697 9.50157 3.33329 12.4901 3.33329 15.9998C3.33329 17.5568 3.59058 19.0214 4.10517 20.3936C4.61975 21.7658 5.33885 22.9929 6.26246 24.0748ZM16 17.5832C14.443 17.5832 13.1302 17.0488 12.0614 15.98C10.9927 14.9113 10.4583 13.5984 10.4583 12.0415C10.4583 10.4846 10.9927 9.17171 12.0614 8.10296C13.1302 7.03421 14.443 6.49984 16 6.49984C17.5569 6.49984 18.8698 7.03421 19.9385 8.10296C21.0073 9.17171 21.5416 10.4846 21.5416 12.0415C21.5416 13.5984 21.0073 14.9113 19.9385 15.98C18.8698 17.0488 17.5569 17.5832 16 17.5832ZM16 31.8332C13.8097 31.8332 11.7513 31.4175 9.82496 30.5863C7.89857 29.755 6.22288 28.6269 4.79788 27.2019C3.37288 25.7769 2.24475 24.1012 1.4135 22.1748C0.582251 20.2485 0.166626 18.1901 0.166626 15.9998C0.166626 13.8096 0.582251 11.7512 1.4135 9.82484C2.24475 7.89845 3.37288 6.22275 4.79788 4.79775C6.22288 3.37275 7.89857 2.24463 9.82496 1.41338C11.7513 0.582129 13.8097 0.166504 16 0.166504C18.1902 0.166504 20.2486 0.582129 22.175 1.41338C24.1014 2.24463 25.777 3.37275 27.202 4.79775C28.627 6.22275 29.7552 7.89845 30.5864 9.82484C31.4177 11.7512 31.8333 13.8096 31.8333 15.9998C31.8333 18.1901 31.4177 20.2485 30.5864 22.1748C29.7552 24.1012 28.627 25.7769 27.202 27.2019C25.777 28.6269 24.1014 29.755 22.175 30.5863C20.2486 31.4175 18.1902 31.8332 16 31.8332Z" fill="#1D1B20"/>
</svg>
