<svg width="30" height="30" viewBox="0 0 30 30" fill="none" xmlns="http://www.w3.org/2000/svg">
<path d="M27.0333 29.25L17.0583 19.275C16.2666 19.9083 15.3562 20.4097 14.327 20.7792C13.2979 21.1486 12.2027 21.3333 11.0416 21.3333C8.16522 21.3333 5.73084 20.3372 3.73848 18.3448C1.74612 16.3524 0.749939 13.9181 0.749939 11.0417C0.749939 8.16528 1.74612 5.7309 3.73848 3.73854C5.73084 1.74618 8.16522 0.75 11.0416 0.75C13.918 0.75 16.3524 1.74618 18.3447 3.73854C20.3371 5.7309 21.3333 8.16528 21.3333 11.0417C21.3333 12.2028 21.1486 13.2979 20.7791 14.3271C20.4097 15.3562 19.9083 16.2667 19.2749 17.0583L29.2499 27.0333L27.0333 29.25ZM11.0416 18.1667C13.0208 18.1667 14.7031 17.474 16.0885 16.0885C17.4739 14.7031 18.1666 13.0208 18.1666 11.0417C18.1666 9.0625 17.4739 7.38021 16.0885 5.99479C14.7031 4.60937 13.0208 3.91667 11.0416 3.91667C9.06244 3.91667 7.38015 4.60937 5.99473 5.99479C4.60931 7.38021 3.91661 9.0625 3.91661 11.0417C3.91661 13.0208 4.60931 14.7031 5.99473 16.0885C7.38015 17.474 9.06244 18.1667 11.0416 18.1667Z" fill="#1D1B20"/>
</svg>
